<?xml version="1.0" encoding="UTF-8"?>
<!DOCTYPE svg PUBLIC "-//W3C//DTD SVG 1.1//EN" "http://www.w3.org/Graphics/SVG/1.1/DTD/svg11.dtd">
<svg xmlns="http://www.w3.org/2000/svg" version="1.1" width="858px" height="861px" style="shape-rendering:geometricPrecision; text-rendering:geometricPrecision; image-rendering:optimizeQuality; fill-rule:evenodd; clip-rule:evenodd" xmlns:xlink="http://www.w3.org/1999/xlink">
<g><path style="opacity:1" fill="#528265" d="M -0.5,-0.5 C 285.5,-0.5 571.5,-0.5 857.5,-0.5C 857.5,286.5 857.5,573.5 857.5,860.5C 571.5,860.5 285.5,860.5 -0.5,860.5C -0.5,573.5 -0.5,286.5 -0.5,-0.5 Z"/></g>
<g><path style="opacity:1" fill="#fbfcfb" d="M 490.5,3.5 C 493.93,3.10653 497.096,3.77319 500,5.5C 500.333,26.5 500.667,47.5 501,68.5C 510.71,54.2461 520.543,40.0795 530.5,26C 536.479,24.0718 540.646,25.9051 543,31.5C 543.351,48.3825 545.351,65.0492 549,81.5C 558.413,63.6731 568.079,46.0064 578,28.5C 582.264,25.6551 586.264,25.9884 590,29.5C 590.912,33.4525 590.245,37.1191 588,40.5C 575.581,61.0021 563.415,81.6687 551.5,102.5C 545.895,104.742 541.395,103.409 538,98.5C 534.764,81.6107 532.431,64.6107 531,47.5C 520.797,61.4051 510.963,75.5717 501.5,90C 496.474,91.4937 492.308,90.3271 489,86.5C 487.161,69.071 486.328,51.571 486.5,34C 486.667,25.1667 486.833,16.3333 487,7.5C 487.69,5.64977 488.856,4.31643 490.5,3.5 Z"/></g>
<g><path style="opacity:1" fill="#fafcfb" d="M 348.5,30.5 C 360.311,30.6565 368.144,36.3232 372,47.5C 372.901,55.3394 374.568,63.006 377,70.5C 379.228,72.9679 382.062,74.1346 385.5,74C 386.91,79.1599 384.91,82.4933 379.5,84C 371.467,84.9973 366.301,81.4973 364,73.5C 362.633,64.9949 360.633,56.6615 358,48.5C 351.038,41.4869 344.704,42.1536 339,50.5C 338.107,53.433 337.607,56.433 337.5,59.5C 339.016,69.9161 340.516,80.2494 342,90.5C 341.5,91.6667 340.667,92.5 339.5,93C 335.756,93.9285 332.256,93.4285 329,91.5C 327.607,84.2391 326.607,76.9057 326,69.5C 324.949,63.9568 323.282,58.6235 321,53.5C 319.883,51.8757 318.383,50.8757 316.5,50.5C 313.034,52.1681 309.867,51.8347 307,49.5C 306.132,45.3283 307.632,42.1617 311.5,40C 319.576,36.8029 325.743,38.9696 330,46.5C 333.6,38.0576 339.767,32.7243 348.5,30.5 Z"/></g>
<g><path style="opacity:1" fill="#fbfcfb" d="M 253.5,61.5 C 262.609,61.4753 269.442,65.4753 274,73.5C 275.591,81.3201 273.424,87.8201 267.5,93C 261.006,97.2465 254.006,100.413 246.5,102.5C 245.479,103.002 245.312,103.668 246,104.5C 251.713,110.277 258.213,111.111 265.5,107C 269.718,104.718 273.384,101.718 276.5,98C 281.315,95.2858 284.315,96.6191 285.5,102C 283.005,109.166 278.338,114.5 271.5,118C 249.146,126.74 234.646,119.573 228,96.5C 226.225,83.2154 231.059,73.0487 242.5,66C 246.307,64.5716 249.974,63.0716 253.5,61.5 Z"/></g>
<g><path style="opacity:1" fill="#568568" d="M 250.5,74.5 C 253.978,74.1842 257.312,74.6842 260.5,76C 262.984,78.2838 263.151,80.7838 261,83.5C 255.146,88.8439 248.312,92.1773 240.5,93.5C 239.577,84.7953 242.911,78.462 250.5,74.5 Z"/></g>
<g><path style="opacity:1" fill="#fbfcfb" d="M 629.5,84.5 C 646.198,83.9201 657.698,91.2534 664,106.5C 665.195,113.509 664.195,120.175 661,126.5C 649.779,144.24 634.945,148.073 616.5,138C 601.56,121.796 602.227,106.129 618.5,91C 622.23,88.807 625.897,86.6404 629.5,84.5 Z"/></g>
<g><path style="opacity:1" fill="#538366" d="M 633.5,96.5 C 646.051,96.2154 651.885,102.215 651,114.5C 646.456,130.026 636.956,134.526 622.5,128C 617.127,120.439 617.294,112.939 623,105.5C 626.103,101.886 629.603,98.886 633.5,96.5 Z"/></g>
<g><path style="opacity:1" fill="#fbfcfb" d="M 171.5,112.5 C 180.355,111.512 187.522,114.512 193,121.5C 195.198,127.317 194.865,132.983 192,138.5C 186.542,145.126 180.042,150.46 172.5,154.5C 171.289,155.274 171.289,156.107 172.5,157C 181.397,161.321 188.897,159.488 195,151.5C 197.209,146.702 200.542,143.036 205,140.5C 207.716,141.715 209.549,143.715 210.5,146.5C 204.897,164.127 192.897,172.627 174.5,172C 157.162,165.497 149.329,152.997 151,134.5C 154.962,124.375 161.795,117.042 171.5,112.5 Z"/></g>
<g><path style="opacity:1" fill="#558468" d="M 171.5,125.5 C 183.796,125.034 185.796,129.534 177.5,139C 173.937,142.233 170.104,145.067 166,147.5C 161.405,138.643 163.238,131.31 171.5,125.5 Z"/></g>
<g><path style="opacity:1" fill="#fbfcfb" d="M 704.5,137.5 C 715.373,138.212 719.04,143.879 715.5,154.5C 723.184,153.707 729.684,156.041 735,161.5C 738.493,166.862 738.326,172.029 734.5,177C 731.538,178.564 728.538,178.731 725.5,177.5C 724.167,173.833 722.833,170.167 721.5,166.5C 718.451,164.534 715.118,164.034 711.5,165C 701.914,171.25 693.581,178.917 686.5,188C 678.83,189.327 675.33,186.161 676,178.5C 684.696,169.469 693.696,160.803 703,152.5C 705.032,148.707 704.865,145.04 702.5,141.5C 702.752,139.927 703.418,138.594 704.5,137.5 Z"/></g>
<g><path style="opacity:1" fill="#fbfcfb" d="M 109.5,173.5 C 116.295,171.827 120.295,174.327 121.5,181C 121.646,183.034 120.98,184.701 119.5,186C 110.349,187.469 107.849,192.302 112,200.5C 119.836,208.927 128.836,215.927 139,221.5C 140.5,229.369 137.333,232.869 129.5,232C 119.5,224.667 109.5,217.333 99.5,210C 95.213,209.722 91.213,210.389 87.5,212C 84.1654,209.321 83.6654,206.155 86,202.5C 89.3344,197.945 93.8344,196.278 99.5,197.5C 97.4216,187.015 100.755,179.015 109.5,173.5 Z"/></g>
<g><path style="opacity:1" fill="#fafcfb" d="M 791.5,189.5 C 798.497,188.666 801.664,191.666 801,198.5C 798.795,201.04 796.295,203.207 793.5,205C 777,214.749 760.666,224.749 744.5,235C 742.667,236.833 740.833,238.667 739,240.5C 738.333,242.5 738.333,244.5 739,246.5C 743.979,251.065 743.146,254.065 736.5,255.5C 729.746,253.22 726.08,248.387 725.5,241C 726.441,234.788 729.441,229.788 734.5,226C 753.565,213.809 772.565,201.642 791.5,189.5 Z"/></g>
<g><path style="opacity:1" fill="#fdfdfd" d="M 408.5,228.5 C 496.351,224.169 563.185,259.169 609,333.5C 637.732,390.712 640.065,449.046 616,508.5C 583.752,574.414 531.585,614.248 459.5,628C 370.903,637.608 301.736,605.775 252,532.5C 225.794,486.541 217.794,437.541 228,385.5C 238.226,342.54 260.059,306.706 293.5,278C 326.6,249.452 364.934,232.952 408.5,228.5 Z"/></g>
<g><path style="opacity:1" fill="#528265" d="M 464.5,380.5 C 467.355,381.803 470.355,381.803 473.5,380.5C 473.376,379.893 473.043,379.56 472.5,379.5C 470.953,374.603 470.12,369.603 470,364.5C 479.12,359.69 488.287,355.024 497.5,350.5C 495.01,347.188 493.343,343.522 492.5,339.5C 496.514,339.666 500.514,339.499 504.5,339C 502.833,337.333 501.167,335.667 499.5,334C 502.683,330.985 505.683,327.818 508.5,324.5C 503.177,318.519 500.677,311.519 501,303.5C 494.968,307.697 488.801,311.697 482.5,315.5C 480.333,318.5 478.167,321.5 476,324.5C 472.636,323.261 469.136,322.594 465.5,322.5C 465.334,318.486 465.501,314.486 466,310.5C 471.833,304.667 477.667,298.833 483.5,293C 481.5,288 479.5,283 477.5,278C 467.188,276.668 456.855,276.001 446.5,276C 440.957,281.879 435.123,287.379 429,292.5C 422.213,290.643 415.379,288.976 408.5,287.5C 415.106,274.623 421.439,261.623 427.5,248.5C 470.474,246.881 508.808,259.381 542.5,286C 601.971,334.736 623.471,396.903 607,472.5C 590.047,531.124 553.547,572.624 497.5,597C 433.375,620.063 373.375,612.396 317.5,574C 256.043,524.644 233.21,461.144 249,383.5C 256.38,354.899 269.88,329.732 289.5,308C 296.612,306.525 302.945,303.525 308.5,299C 313.269,298.688 317.935,299.355 322.5,301C 328.033,306.198 333.2,311.698 338,317.5C 339.658,323.798 341.158,330.132 342.5,336.5C 340.966,346.133 340.133,355.8 340,365.5C 345.089,374.676 349.922,384.01 354.5,393.5C 357.559,394.477 359.892,393.477 361.5,390.5C 358.407,384.992 355.907,379.325 354,373.5C 360.569,380.739 367.735,387.239 375.5,393C 387.016,398.213 399.016,401.88 411.5,404C 414.667,408.5 417.833,413 421,417.5C 421.667,418.833 421.667,420.167 421,421.5C 412.5,431.333 404,441.167 395.5,451C 405.333,459.5 415.167,468 425,476.5C 427.567,495.904 430.567,515.237 434,534.5C 440.582,552.993 448.249,570.993 457,588.5C 459.237,586.353 461.237,584.02 463,581.5C 463.681,562.706 467.681,544.706 475,527.5C 491,511.5 507,495.5 523,479.5C 524.332,466.517 524.999,453.517 525,440.5C 518.254,435.544 511.421,430.71 504.5,426C 481.55,423.005 458.55,420.338 435.5,418C 431.976,414.975 428.309,412.142 424.5,409.5C 423.67,403.862 423.17,398.196 423,392.5C 420,389.167 417,385.833 414,382.5C 413.333,381.5 413.333,380.5 414,379.5C 418.333,375.167 422.667,370.833 427,366.5C 429.421,367.961 431.921,369.294 434.5,370.5C 436.063,369.055 437.396,367.389 438.5,365.5C 445.803,364.503 453.137,364.169 460.5,364.5C 461.547,370.02 462.88,375.354 464.5,380.5 Z"/></g>
<g><path style="opacity:1" fill="#fbfcfb" d="M 38.5,248.5 C 45.2817,247.125 48.4484,249.791 48,256.5C 42.6464,260.856 37.6464,265.523 33,270.5C 24.214,292.104 30.714,307.271 52.5,316C 71.3593,320.133 83.526,312.966 89,294.5C 91.4247,281.679 86.4247,273.346 74,269.5C 73.228,269.645 72.5613,269.978 72,270.5C 69.2558,276.91 66.4225,283.243 63.5,289.5C 56.9053,293.082 53.7387,291.082 54,283.5C 57.5877,273.826 62.0877,264.659 67.5,256C 70.366,254.543 73.366,254.21 76.5,255C 98.4093,263.565 105.909,279.065 99,301.5C 90.5915,324.794 74.0915,334.294 49.5,330C 23.5268,320.215 13.0268,301.715 18,274.5C 21.015,262.67 27.8483,254.003 38.5,248.5 Z"/></g>
<g><path style="opacity:1" fill="#fbfcfb" d="M 777.5,273.5 C 793.775,270.718 805.275,276.718 812,291.5C 812.325,295.67 812.491,299.67 812.5,303.5C 823.19,297.766 834.523,294.6 846.5,294C 851.769,298.181 851.769,302.181 846.5,306C 826.26,311.413 806.593,318.413 787.5,327C 785.04,328.458 782.873,330.291 781,332.5C 780.785,335.856 780.785,339.189 781,342.5C 775.582,345.916 771.582,344.583 769,338.5C 768.333,334.833 768.333,331.167 769,327.5C 769.465,326.069 770.299,324.903 771.5,324C 758.239,317.647 752.739,307.147 755,292.5C 759.028,281.966 766.528,275.632 777.5,273.5 Z"/></g>
<g><path style="opacity:1" fill="#538366" d="M 781.5,286.5 C 797.272,285.589 802.939,292.589 798.5,307.5C 790.749,312.143 782.416,313.976 773.5,313C 764.832,307.321 763.499,300.321 769.5,292C 773.227,289.299 777.227,287.465 781.5,286.5 Z"/></g>
<g><path style="opacity:1" fill="#97b4a2" d="M 472.5,379.5 C 473.043,379.56 473.376,379.893 473.5,380.5C 470.355,381.803 467.355,381.803 464.5,380.5C 467.385,380.806 470.052,380.473 472.5,379.5 Z"/></g>
<g><path style="opacity:1" fill="#fdfdfd" d="M 34.5,403.5 C 53.9259,402.774 67.0926,411.44 74,429.5C 76.2918,459.43 62.4585,473.93 32.5,473C 12.2024,466.027 3.36911,451.86 6,430.5C 10.527,416.137 20.027,407.137 34.5,403.5 Z"/></g>
<g><path style="opacity:1" fill="#fdfdfd" d="M 806.5,403.5 C 828.121,402.63 841.621,412.63 847,433.5C 846.671,461.494 832.505,474.661 804.5,473C 784.709,466.201 775.875,452.368 778,431.5C 782.115,416.551 791.615,407.217 806.5,403.5 Z"/></g>
<g><path style="opacity:1" fill="#fbfcfc" d="M 735.5,531.5 C 737.857,531.337 740.19,531.503 742.5,532C 761.358,542.263 781.025,550.596 801.5,557C 805.5,557.667 809.5,557.667 813.5,557C 815.167,554.667 816.833,552.333 818.5,550C 823.629,549.071 826.296,551.237 826.5,556.5C 825.149,564.191 820.816,569.524 813.5,572.5C 819.232,587.803 815.232,599.97 801.5,609C 793.818,612.27 786.151,612.27 778.5,609C 757.469,599.565 751.636,584.398 761,563.5C 763.124,562.378 764.957,560.878 766.5,559C 756.7,555.063 747.034,550.729 737.5,546C 731.668,541.845 731.001,537.012 735.5,531.5 Z"/></g>
<g><path style="opacity:1" fill="#fbfcfb" d="M 75.5,538.5 C 108.298,537.301 126.631,552.968 130.5,585.5C 130.815,592.727 128.482,598.893 123.5,604C 118.062,605.553 115.062,603.553 114.5,598C 119.778,581.838 115.778,568.505 102.5,558C 84.9204,549.723 69.4204,552.556 56,566.5C 46.9818,582.032 49.1485,595.865 62.5,608C 69.5976,612.293 76.931,612.626 84.5,609C 85.5762,607.274 85.7429,605.441 85,603.5C 82.5417,597.588 80.375,591.588 78.5,585.5C 79.962,579.293 83.462,577.959 89,581.5C 93.1882,591.414 96.6882,601.581 99.5,612C 98.0798,619.085 93.7464,623.085 86.5,624C 65.3475,628.841 50.5142,621.341 42,601.5C 31.6245,568.913 42.7912,547.913 75.5,538.5 Z"/></g>
<g><path style="opacity:1" fill="#548366" d="M 778.5,564.5 C 783.91,566.026 789.244,567.859 794.5,570C 806.96,576.298 808.626,584.632 799.5,595C 788.776,598.878 779.609,596.378 772,587.5C 767.031,577.638 769.198,569.971 778.5,564.5 Z"/></g>
<g><path style="opacity:1" fill="#fbfcfb" d="M 697.5,613.5 C 701.131,613.16 704.464,613.994 707.5,616C 726.482,630.158 745.816,643.825 765.5,657C 767.971,657.706 770.305,657.373 772.5,656C 773.585,653.828 774.919,651.828 776.5,650C 778.635,649.365 780.635,649.699 782.5,651C 784.776,663.569 779.443,670.069 766.5,670.5C 761.397,670.453 756.73,668.953 752.5,666C 733.333,652.167 714.167,638.333 695,624.5C 693.946,620.345 694.78,616.678 697.5,613.5 Z"/></g>
<g><path style="opacity:1" fill="#fafbfa" d="M 124.5,639.5 C 132.269,640.432 135.769,644.765 135,652.5C 134.55,654.519 133.717,656.352 132.5,658C 140.377,659.021 146.877,662.521 152,668.5C 156.827,677.492 154.493,683.492 145,686.5C 142.594,686.297 140.594,685.297 139,683.5C 138.934,668.877 132.434,665.377 119.5,673C 112.256,677.573 105.59,682.907 99.5,689C 91.0072,692.506 86.8405,689.672 87,680.5C 98.0454,671.119 109.379,662.119 121,653.5C 123.068,650.19 122.902,647.024 120.5,644C 121.344,641.993 122.677,640.493 124.5,639.5 Z"/></g>
<g><path style="opacity:1" fill="#fafcfb" d="M 701.5,671.5 C 711.794,671.931 714.794,676.764 710.5,686C 697.933,687.321 695.1,693.487 702,704.5C 709.364,712.198 717.03,719.531 725,726.5C 725.939,735.566 722.106,738.732 713.5,736C 703.863,727.364 694.53,718.364 685.5,709C 681.593,706.782 678.093,707.282 675,710.5C 670.874,708.819 669.54,705.819 671,701.5C 674.697,694.453 680.03,692.786 687,696.5C 686.226,684.691 691.06,676.358 701.5,671.5 Z"/></g>
<g><path style="opacity:1" fill="#fbfcfb" d="M 174.5,707.5 C 188.729,707.198 199.896,712.864 208,724.5C 212.556,734.914 210.389,743.748 201.5,751C 198.188,751.938 194.855,752.771 191.5,753.5C 186.63,752.398 182.297,750.232 178.5,747C 173.328,742.161 168.495,736.994 164,731.5C 158.982,740.156 160.482,747.656 168.5,754C 173.78,756.982 178.947,760.149 184,763.5C 184.864,768.969 182.531,771.635 177,771.5C 159.108,767.942 149.274,757.109 147.5,739C 150.228,723.106 159.228,712.606 174.5,707.5 Z"/></g>
<g><path style="opacity:1" fill="#568569" d="M 174.5,721.5 C 183.631,719.381 190.797,722.048 196,729.5C 198.994,734.963 197.661,738.63 192,740.5C 188.512,739.673 185.346,738.173 182.5,736C 179,732.5 175.5,729 172,725.5C 172.193,723.918 173.026,722.584 174.5,721.5 Z"/></g>
<g><path style="opacity:1" fill="#fbfcfb" d="M 629.5,733.5 C 643.107,731.305 653.941,735.639 662,746.5C 671.48,762.472 669.646,776.972 656.5,790C 639.236,799.732 624.402,796.899 612,781.5C 600.729,759.071 606.562,743.071 629.5,733.5 Z"/></g>
<g><path style="opacity:1" fill="#fcfdfc" d="M 558.5,741.5 C 561.187,741.336 563.854,741.503 566.5,742C 567.701,742.903 568.535,744.069 569,745.5C 569.149,774.246 568.482,802.912 567,831.5C 562.788,834.721 558.288,835.221 553.5,833C 541.9,819.403 531.067,805.236 521,790.5C 517.915,807.685 515.915,825.019 515,842.5C 514.215,844.286 513.049,845.786 511.5,847C 508.167,847.667 504.833,847.667 501.5,847C 485.642,824.781 471.808,801.281 460,776.5C 459.194,767.973 463.028,764.639 471.5,766.5C 481.223,786.281 491.723,805.614 503,824.5C 505.152,806.185 507.152,787.852 509,769.5C 513.643,764.547 518.643,764.213 524,768.5C 532.831,783.662 542.831,797.995 554,811.5C 554.333,789.5 554.667,767.5 555,745.5C 556.376,744.295 557.542,742.962 558.5,741.5 Z"/></g>
<g><path style="opacity:1" fill="#538366" d="M 631.5,745.5 C 639.391,744.862 645.557,747.862 650,754.5C 655.636,762.223 655.97,770.223 651,778.5C 641.025,786.204 632.358,784.871 625,774.5C 621.44,768.262 620.107,761.596 621,754.5C 623.505,750.189 627.005,747.189 631.5,745.5 Z"/></g>
<g><path style="opacity:1" fill="#fbfcfc" d="M 249.5,757.5 C 264.517,755.997 276.35,761.33 285,773.5C 288.845,791.745 281.678,800.245 263.5,799C 254.879,796.026 247.212,791.526 240.5,785.5C 237.451,791.635 238.451,797.135 243.5,802C 247.007,804.254 250.673,806.254 254.5,808C 259.003,808.068 263.17,809.235 267,811.5C 268.458,815.781 267.292,818.947 263.5,821C 245.315,822.134 232.815,814.301 226,797.5C 224.014,778.334 231.848,765.001 249.5,757.5 Z"/></g>
<g><path style="opacity:1" fill="#57866a" d="M 253.5,770.5 C 262.111,769.057 268.611,772.057 273,779.5C 273.401,786.083 270.235,788.583 263.5,787C 257.04,784.271 251.04,780.771 245.5,776.5C 247.517,773.506 250.184,771.506 253.5,770.5 Z"/></g>
<g><path style="opacity:1" fill="#fbfcfb" d="M 320.5,782.5 C 331.385,781.549 337.218,786.549 338,797.5C 345.609,789.433 354.776,787.266 365.5,791C 373.522,795.552 377.522,802.386 377.5,811.5C 376.393,820.431 374.726,829.265 372.5,838C 372.674,842.511 374.841,845.678 379,847.5C 379.536,849.567 379.036,851.401 377.5,853C 365.338,856.524 359.004,851.858 358.5,839C 360.327,830.36 361.993,821.694 363.5,813C 362.46,803.135 357.127,799.802 347.5,803C 340.92,808.994 336.753,816.494 335,825.5C 333.878,831.57 332.545,837.57 331,843.5C 326.194,846.48 321.861,845.813 318,841.5C 317.333,839.167 317.333,836.833 318,834.5C 321.963,823.781 324.796,812.781 326.5,801.5C 326.285,795.816 323.285,793.316 317.5,794C 313.261,788.944 314.261,785.11 320.5,782.5 Z"/></g>
</svg>
